<?xml version="1.0" encoding="utf-8"?>
<!-- Generator: Adobe Illustrator 23.1.0, SVG Export Plug-In . SVG Version: 6.00 Build 0)  -->
<svg version="1.1" id="图层_1" xmlns="http://www.w3.org/2000/svg" xmlns:xlink="http://www.w3.org/1999/xlink" x="0px" y="0px"
	 viewBox="0 0 290.43 290.43" style="enable-background:new 0 0 290.43 290.43;" xml:space="preserve">
<style type="text/css">
	.st0{fill:url(#SVGID_1_);}
	.st1{fill:url(#SVGID_2_);}
	.st2{fill:url(#SVGID_3_);}
	.st3{fill:url(#SVGID_4_);}
</style>
<g>
	<linearGradient id="SVGID_1_" gradientUnits="userSpaceOnUse" x1="122.7363" y1="26.5789" x2="122.7363" y2="307.7552">
		<stop  offset="0" style="stop-color:#F5EA36"/>
		<stop  offset="0.0589" style="stop-color:#F4DC2D"/>
		<stop  offset="0.1299" style="stop-color:#F3D026"/>
		<stop  offset="0.203" style="stop-color:#F2C921"/>
		<stop  offset="0.2809" style="stop-color:#F2C61F"/>
		<stop  offset="0.6685" style="stop-color:#E89033"/>
		<stop  offset="0.8876" style="stop-color:#DE6431"/>
		<stop  offset="1" style="stop-color:#D8372D"/>
	</linearGradient>
	<path class="st0" d="M188.83,103.78c6.37-3.88,13.17-9.06,18.65-15.09l0.01,0l0.42-0.48c0.48-0.54,0.94-1.08,1.4-1.62l0.13-0.15
		c0.07-0.09,0.13-0.17,0.2-0.26c0.46-0.57,0.91-1.14,1.35-1.72c0.16-0.22,0.32-0.44,0.48-0.66c0.31-0.43,0.62-0.87,0.92-1.31
		c0.28-0.41,0.54-0.81,0.8-1.22c0.14-0.22,0.28-0.44,0.41-0.66c12.97-21.17-2-36.82-16.78-46.08c-10.89-7.44-38.62-13.32-54.79-2.59
		c-16.16-10.83-41.12-6.27-55.91,3.15C68.63,46.12,59.32,62.06,75.08,84.34c2.82,3.65,6.91,8.28,7.18,8.48
		c0.11,0.08,4.79,4.59,4.91,4.67l6.99,5.59l36.22-20.05l-26.34-16.52c0,0,0,0,0,0c-4.91-3.09-7.81-7.39-7.96-11.82
		c-0.16-4.5,2.43-8.66,7.28-11.72c10.11-6.36,26.58-6.41,36.72-0.12l2.56,1.58l2.57-1.58c10.16-6.24,26.58-6.19,36.6,0.12
		c8.45,5.32,9.81,13.49,4.11,19.73c-0.54,0.56-1.14,1.11-1.73,1.66c-0.66,0.55-1.35,1.09-2.14,1.59l-15.01,9.91l-0.64,0.37
		c-3.14,1.8-6.2,3.55-9.16,5.25l-0.03,0.02l-0.08,0.05c-4.59,2.63-8.92,5.13-13.1,7.54l-1.16,0.67l-0.91,0.52
		c-0.71,0.41-1.39,0.8-2.09,1.21l-3.13,1.81l0,0c-65.61,37.97-76.77,46.07-76.77,46.07s-62.19,36.97-15.89,74.28
		c3.8-31.09,48.02-55.97,48.02-55.97S174.32,113.79,188.83,103.78z"/>
	<linearGradient id="SVGID_2_" gradientUnits="userSpaceOnUse" x1="50.1632" y1="26.5789" x2="50.1632" y2="307.7559">
		<stop  offset="0" style="stop-color:#F5EA36"/>
		<stop  offset="0.0589" style="stop-color:#F4DC2D"/>
		<stop  offset="0.1299" style="stop-color:#F3D026"/>
		<stop  offset="0.203" style="stop-color:#F2C921"/>
		<stop  offset="0.2809" style="stop-color:#F2C61F"/>
		<stop  offset="0.6685" style="stop-color:#E89033"/>
		<stop  offset="0.8876" style="stop-color:#DE6431"/>
		<stop  offset="1" style="stop-color:#D8372D"/>
	</linearGradient>
	<path class="st1" d="M44.71,134.18c0,0,17.33-12.44,29.76-20.38C36.12,87.19,45.8,72.67,45.8,72.67
		C1.57,101,44.71,134.18,44.71,134.18z"/>
	<linearGradient id="SVGID_3_" gradientUnits="userSpaceOnUse" x1="240.2663" y1="26.5789" x2="240.2663" y2="307.7559">
		<stop  offset="0" style="stop-color:#F5EA36"/>
		<stop  offset="0.0589" style="stop-color:#F4DC2D"/>
		<stop  offset="0.1299" style="stop-color:#F3D026"/>
		<stop  offset="0.203" style="stop-color:#F2C921"/>
		<stop  offset="0.2809" style="stop-color:#F2C61F"/>
		<stop  offset="0.6685" style="stop-color:#E89033"/>
		<stop  offset="0.8876" style="stop-color:#DE6431"/>
		<stop  offset="1" style="stop-color:#D8372D"/>
	</linearGradient>
	<path class="st2" d="M245.72,156.25c0,0-17.33,12.44-29.76,20.38c38.35,26.6,28.68,41.12,28.68,41.12
		C288.86,189.43,245.72,156.25,245.72,156.25z"/>
	<linearGradient id="SVGID_4_" gradientUnits="userSpaceOnUse" x1="167.6931" y1="26.5788" x2="167.6931" y2="307.7551">
		<stop  offset="0" style="stop-color:#F5EA36"/>
		<stop  offset="0.0589" style="stop-color:#F4DC2D"/>
		<stop  offset="0.1299" style="stop-color:#F3D026"/>
		<stop  offset="0.203" style="stop-color:#F2C921"/>
		<stop  offset="0.2809" style="stop-color:#F2C61F"/>
		<stop  offset="0.6685" style="stop-color:#E89033"/>
		<stop  offset="0.8876" style="stop-color:#DE6431"/>
		<stop  offset="1" style="stop-color:#D8372D"/>
	</linearGradient>
	<path class="st3" d="M208.16,197.61c-0.11-0.08-4.79-4.59-4.91-4.67l-6.99-5.59l-36.22,20.05l26.34,16.52l0,0
		c4.91,3.09,7.81,7.39,7.96,11.82c0.16,4.5-2.43,8.66-7.28,11.72c-10.11,6.36-26.58,6.41-36.72,0.12l-2.56-1.58l-2.57,1.58
		c-10.16,6.24-26.58,6.19-36.6-0.12c-8.45-5.32-9.81-13.49-4.11-19.73c0.54-0.56,1.14-1.11,1.73-1.66c0.66-0.55,1.35-1.09,2.14-1.59
		l15.01-9.91l0.64-0.37c3.14-1.8,6.2-3.55,9.16-5.25l0.03-0.02l0.08-0.05c4.63-2.66,8.99-5.17,13.2-7.6l1.05-0.61l0.83-0.48
		c0.8-0.46,1.56-0.9,2.34-1.35l2.96-1.71l0,0c65.61-37.97,76.77-46.07,76.77-46.07s62.19-36.97,15.89-74.28
		c-3.8,31.09-48.02,55.97-48.02,55.97s-82.23,43.88-96.74,53.9c-6.37,3.88-13.17,9.06-18.65,15.09l-0.01,0l-0.41,0.48
		c-0.48,0.54-0.95,1.08-1.41,1.64l-0.13,0.15c-0.07,0.08-0.13,0.17-0.19,0.25c-0.46,0.57-0.92,1.15-1.35,1.73
		c-0.16,0.22-0.32,0.43-0.47,0.65c-0.32,0.44-0.63,0.87-0.92,1.32c-0.28,0.4-0.54,0.81-0.79,1.21c-0.14,0.22-0.28,0.44-0.42,0.67
		c-12.96,21.16,2,36.82,16.78,46.07c10.89,7.44,38.62,13.32,54.79,2.59c16.16,10.83,41.12,6.27,55.91-3.15
		c17.48-11.03,26.79-26.97,11.03-49.25C212.53,202.44,208.44,197.81,208.16,197.61z"/>
</g>
</svg>
